<mxfile host="app.diagrams.net" modified="2023-09-20T16:32:04.573Z" agent="Mozilla/5.0 (X11; Ubuntu; Linux x86_64; rv:109.0) Gecko/20100101 Firefox/117.0" version="21.7.2" etag="2ZboEFB-IgHtecIwM8hX" type="github">
  <diagram name="Page-1" id="C30IYXTQzpdTgBaTdObk">
    <mxGraphModel>
      <root>
        <mxCell id="0" />
        <mxCell id="1" parent="0" />
      </root>
    </mxGraphModel>
  </diagram>
</mxfile>
